name GIL03_xslow1.mot
datacolumns 153
datarows 4
range 0.94166666 0.96666664
endheader

                time	           pelvis_tx	           pelvis_ty	           pelvis_tz	         pelvis_tilt	         pelvis_list	     pelvis_rotation	       hip_flexion_r	     hip_adduction_r	      hip_rotation_r	        knee_angle_r	       ankle_angle_r	    subtalar_angle_r	         mtp_angle_r	       hip_flexion_l	     hip_adduction_l	      hip_rotation_l	        knee_angle_l	       ankle_angle_l	    subtalar_angle_l	         mtp_angle_l	    lumbar_extension	      lumbar_bending	     lumbar_rotation	     ground_force_vx	     ground_force_vy	     ground_force_vz	     ground_force_px	     ground_force_py	     ground_force_pz	     ground_force_vx	     ground_force_vy	     ground_force_vz	     ground_force_px	     ground_force_py	     ground_force_pz	     ground_torque_x	     ground_torque_y	     ground_torque_z	     ground_torque_x	     ground_torque_y	     ground_torque_z	    ground_marker_px	    ground_marker_py	    ground_marker_pz	    ground_marker_px	    ground_marker_py	    ground_marker_pz	    ground_marker_px	    ground_marker_py	    ground_marker_pz	    ground_marker_px	    ground_marker_py	    ground_marker_pz	    ground_marker_px	    ground_marker_py	    ground_marker_pz	    ground_marker_px	    ground_marker_py	    ground_marker_pz	    ground_marker_px	    ground_marker_py	    ground_marker_pz	    ground_marker_px	    ground_marker_py	    ground_marker_pz	    ground_marker_px	    ground_marker_py	    ground_marker_pz	    ground_marker_px	    ground_marker_py	    ground_marker_pz	    ground_marker_px	    ground_marker_py	    ground_marker_pz	    ground_marker_px	    ground_marker_py	    ground_marker_pz	    ground_marker_px	    ground_marker_py	    ground_marker_pz	    ground_marker_px	    ground_marker_py	    ground_marker_pz	    ground_marker_px	    ground_marker_py	    ground_marker_pz	    ground_marker_px	    ground_marker_py	    ground_marker_pz	    ground_marker_px	    ground_marker_py	    ground_marker_pz	    ground_marker_px	    ground_marker_py	    ground_marker_pz	    ground_marker_px	    ground_marker_py	    ground_marker_pz	    ground_marker_px	    ground_marker_py	    ground_marker_pz	    ground_marker_px	    ground_marker_py	    ground_marker_pz	    ground_marker_px	    ground_marker_py	    ground_marker_pz	    ground_marker_px	    ground_marker_py	    ground_marker_pz	    ground_marker_px	    ground_marker_py	    ground_marker_pz	    ground_marker_px	    ground_marker_py	    ground_marker_pz	    ground_marker_px	    ground_marker_py	    ground_marker_pz	    ground_marker_px	    ground_marker_py	    ground_marker_pz	    ground_marker_px	    ground_marker_py	    ground_marker_pz	    ground_marker_px	    ground_marker_py	    ground_marker_pz	    ground_marker_px	    ground_marker_py	    ground_marker_pz	    ground_marker_px	    ground_marker_py	    ground_marker_pz	    ground_marker_px	    ground_marker_py	    ground_marker_pz	    ground_marker_px	    ground_marker_py	    ground_marker_pz	    ground_marker_px	    ground_marker_py	    ground_marker_pz	    ground_marker_px	    ground_marker_py	    ground_marker_pz	    ground_marker_px	    ground_marker_py	    ground_marker_pz	    ground_marker_px	    ground_marker_py	    ground_marker_pz	
          0.94166666	          1.86863613	          0.90042430	         -0.24509984	          2.53688049	         -2.99636984	          2.91469097	         12.00421715	          4.60403442	         12.27721691	        -14.04488182	          1.57311296	          0.00000000	          0.00000000	        -12.21915436	         -4.62900162	         -2.78025913	        -24.51392365	          6.07327318	          0.00000000	          0.00000000	        -17.82066727	          1.74684548	         -4.03698349	        -22.92337336	        292.88127881	        -14.38845212	          1.92189014	          0.00000000	         -0.18698026	          5.72462687	        115.98630476	         -0.96442045	          1.60708789	          0.00000000	         -0.29329358	          0.00000000	         -0.29711426	          0.00000000	          0.00000000	         -0.24464465	          0.00000000	          1.81319332	          0.83990312	         -0.23938194	          1.81846046	          0.82296568	         -0.18011586	          1.80171275	          0.81646121	         -0.29620564	          1.91039598	          0.45979336	         -0.20001735	          1.73934901	          0.45974290	         -0.30641934	          1.91664195	          0.06099529	         -0.18956299	          1.50586796	          0.11970434	         -0.31199050	          1.86863613	          0.90042430	         -0.24509984	          1.87452352	          0.90474755	         -0.14513928	          1.86274886	          0.89610106	         -0.34506041	          1.71351516	          0.92716974	         -0.20497015	          1.71025670	          0.92728400	         -0.25978005	          1.93443298	          0.46317372	         -0.15066357	          1.74798322	          0.45977414	         -0.36023104	          1.88247681	          0.45112765	         -0.24131471	          1.73205650	          0.44753703	         -0.26233923	          1.92066574	          0.06206166	         -0.15128869	          1.50953794	          0.11781146	         -0.35026839	          1.92717540	          0.07737836	         -0.22289836	          1.52384543	          0.12968707	         -0.28595361	          1.75947750	          1.33933723	         -0.23746473	          1.85745275	          1.26640916	         -0.18532977	          1.85930002	          1.26297355	         -0.29297665	          1.84369266	          1.27576756	         -0.24495542	          1.89529395	          1.10815692	         -0.23765741	          1.99374032	          0.65916753	         -0.23099059	          1.90070844	          0.60078347	         -0.28712398	          1.92898571	          0.68895841	         -0.15880597	          1.83918035	          0.65532780	         -0.34661081	          1.94146585	          0.60419768	         -0.16202942	          1.82440889	          0.56879002	         -0.34361616	          1.93895078	          0.18659495	         -0.08655927	          1.54888725	          0.23931189	         -0.41725296	          1.92815852	          0.19243647	         -0.12722278	          1.55900431	          0.23906986	         -0.37515536	          2.03525019	          0.04264528	         -0.19808969	          1.59830558	          0.04032643	         -0.29963014	
          0.94999999	          1.87519503	          0.90085959	         -0.24396332	          2.42487049	         -3.02330709	          2.85226464	         11.74242783	          4.72059917	         11.91932583	        -14.15381622	          1.87110424	          0.00000000	          0.00000000	        -12.19859314	         -5.02138233	         -3.34941006	        -24.79410172	          5.01232004	          0.00000000	          0.00000000	        -17.55090332	          1.85840702	         -4.04239130	        -23.37318256	        307.91534773	        -15.65902794	          1.92518665	          0.00000000	         -0.18695581	          4.03364801	         99.43896038	         -1.65905790	          1.60754016	          0.00000000	         -0.29376538	          0.00000000	         -0.32288354	          0.00000000	          0.00000000	         -0.19089084	          0.00000000	          1.81995177	          0.84073305	         -0.23847622	          1.82480776	          0.82353818	         -0.17897959	          1.80816317	          0.81699073	         -0.29508176	          1.91434646	          0.45984992	         -0.19919905	          1.74510276	          0.46017826	         -0.30762136	          1.91705418	          0.06101841	         -0.18945707	          1.50939596	          0.12158386	         -0.31327796	          1.87519503	          0.90085959	         -0.24396332	          1.88099205	          0.90523684	         -0.14398387	          1.86939812	          0.89648241	         -0.34394276	          1.72013235	          0.92791069	         -0.20412526	          1.71680200	          0.92802316	         -0.25883004	          1.93807244	          0.46293786	         -0.14967586	          1.75332677	          0.46061814	         -0.36149549	          1.88689291	          0.45173198	         -0.24049306	          1.73821664	          0.44755661	         -0.26368216	          1.92088974	          0.06197989	         -0.15116069	          1.51253641	          0.12003829	         -0.35161853	          1.92743516	          0.07734773	         -0.22271554	          1.52762961	          0.13178346	         -0.28751841	          1.76508546	          1.33980656	         -0.23637445	          1.86316907	          1.26706660	         -0.18425077	          1.86517477	          1.26379550	         -0.29192054	          1.84948611	          1.27647424	         -0.24384780	          1.90149951	          1.10899222	         -0.23677115	          1.99934340	          0.65883619	         -0.22911640	          1.90703964	          0.60082537	         -0.28843251	          1.93454909	          0.68903637	         -0.15710348	          1.84501338	          0.65582520	         -0.34701529	          1.94649363	          0.60418761	         -0.16050062	          1.83014417	          0.56941277	         -0.34464487	          1.93992043	          0.18608862	         -0.08614097	          1.55194092	          0.24229570	         -0.41807836	          1.92922759	          0.19216068	         -0.12674631	          1.56238568	          0.24162686	         -0.37617511	          2.03560257	          0.04224377	         -0.19791737	          1.59925663	          0.04038228	         -0.30009568	
          0.95833331	          1.88168705	          0.90128690	         -0.24282950	          2.28877068	         -3.02980113	          2.78837061	         11.50805092	          4.81667566	         11.58038998	        -14.26742268	          2.18861032	          0.00000000	          0.00000000	        -12.14654255	         -5.39760733	         -3.85396671	        -25.05962563	          3.89109087	          0.00000000	          0.00000000	        -17.25937080	          1.93612516	         -4.04552555	        -24.06745367	        322.49402825	        -16.71166576	          1.92853259	          0.00000000	         -0.18702078	          2.47277848	         83.31336639	         -2.24748107	          1.60821289	          0.00000000	         -0.29415540	          0.00000000	         -0.34106909	          0.00000000	          0.00000000	         -0.15400783	          0.00000000	          1.82684183	          0.84193420	         -0.23778585	          1.83105063	          0.82410192	         -0.17787723	          1.81451619	          0.81755817	         -0.29399535	          1.91823030	          0.45989469	         -0.19841637	          1.75081432	          0.46064097	         -0.30890161	          1.91741121	          0.06107309	         -0.18937443	          1.51308537	          0.12341632	         -0.31466308	          1.88168705	          0.90128690	         -0.24282950	          1.88738704	          0.90568113	         -0.14283226	          1.87598705	          0.89689267	         -0.34282675	          1.72667456	          0.92867827	         -0.20330706	          1.72324967	          0.92885292	         -0.25786117	          1.94164908	          0.46269840	         -0.14873035	          1.75868940	          0.46148738	         -0.36282301	          1.89133608	          0.45226240	         -0.24015091	          1.74416208	          0.44772163	         -0.26483184	          1.92105484	          0.06193432	         -0.15105692	          1.51571035	          0.12222180	         -0.35305494	          1.92759776	          0.07734916	         -0.22256202	          1.53146017	          0.13372907	         -0.28915703	          1.77069652	          1.34026062	         -0.23529856	          1.86887836	          1.26774240	         -0.18322377	          1.87102699	          1.26461720	         -0.29084754	          1.85524404	          1.27719045	         -0.24276261	          1.90770173	          1.10984087	         -0.23587574	          2.00483775	          0.65845317	         -0.22729297	          1.91326439	          0.60091430	         -0.28965721	          1.93991375	          0.68893450	         -0.15564427	          1.85082030	          0.65636021	         -0.34743035	          1.95133877	          0.60412496	         -0.15924367	          1.83577526	          0.56995308	         -0.34557429	          1.94081855	          0.18561251	         -0.08574574	          1.55514431	          0.24524301	         -0.41895908	          1.93018413	          0.19187871	         -0.12630594	          1.56583130	          0.24421307	         -0.37722003	          2.03591084	          0.04191712	         -0.19774722	          1.60024142	          0.04044966	         -0.30054805	
          0.96666664	          1.88809228	          0.90170270	         -0.24171615	          2.12939167	         -3.01734376	          2.73352909	         11.29820633	          4.88920879	         11.27671719	        -14.38004398	          2.52196455	          0.00000000	          0.00000000	        -12.04734612	         -5.74933958	         -4.29036427	        -25.33294487	          2.71733212	          0.00000000	          0.00000000	        -16.98540115	          1.97157788	         -4.03175211	        -25.00404261	        336.05252351	        -17.42139258	          1.93195654	          0.00000000	         -0.18717796	          0.91719356	         68.07914723	         -2.63275314	          1.60912476	          0.00000000	         -0.29438132	          0.00000000	         -0.36584741	          0.00000000	          0.00000000	         -0.13366483	          0.00000000	          1.83335042	          0.84303063	         -0.23751560	          1.83718169	          0.82465303	         -0.17681755	          1.82074308	          0.81816036	         -0.29295215	          1.92201817	          0.45992714	         -0.19767445	          1.75655222	          0.46110809	         -0.31020761	          1.91770697	          0.06114272	         -0.18931279	          1.51694870	          0.12521470	         -0.31614029	          1.88809228	          0.90170270	         -0.24171615	          1.89370680	          0.90607667	         -0.14170568	          1.88247764	          0.89732873	         -0.34172663	          1.73312783	          0.92946899	         -0.20249753	          1.72957683	          0.92976999	         -0.25685537	          1.94515657	          0.46245962	         -0.14784276	          1.76413071	          0.46235317	         -0.36416376	          1.89570940	          0.45253536	         -0.23968193	          1.75008738	          0.44805932	         -0.26574391	          1.92117429	          0.06190906	         -0.15097691	          1.51908970	          0.12436631	         -0.35457134	          1.92771971	          0.07738157	         -0.22241822	          1.53529906	          0.13564955	         -0.29084092	          1.77630913	          1.34078670	         -0.23419902	          1.87460911	          1.26845467	         -0.18212867	          1.87683940	          1.26543808	         -0.28979826	          1.86096597	          1.27790964	         -0.24170139	          1.91383362	          1.11069393	         -0.23492983	          2.01017952	          0.65800214	         -0.22558658	          1.91942251	          0.60105586	         -0.29078966	          1.94506943	          0.68868333	         -0.15436143	          1.85664690	          0.65700662	         -0.34784195	          1.95600855	          0.60395706	         -0.15804385	          1.84141898	          0.57050955	         -0.34637776	          1.94168699	          0.18516965	         -0.08538689	          1.55856323	          0.24812004	         -0.41989768	          1.93116832	          0.19162065	         -0.12591010	          1.56940579	          0.24673036	         -0.37821120	          2.03617835	          0.04164560	         -0.19759350	          1.60127914	          0.04054281	         -0.30098829	
